<svg xmlns="http://www.w3.org/2000/svg" width="156.196" height="48.811" viewBox="0 0 156.196 48.811">
  <g id="app-store-badge" transform="translate(0)">
    <path id="Path_43756" data-name="Path 43756" d="M195.515,67.811H49.081A4.9,4.9,0,0,1,44.2,62.93V23.881A4.9,4.9,0,0,1,49.081,19H195.515a4.9,4.9,0,0,1,4.881,4.881V62.93A4.9,4.9,0,0,1,195.515,67.811Z" transform="translate(-44.2 -19)"/>
    <path id="Path_43757" data-name="Path 43757" d="M74.891,40.391a7.075,7.075,0,0,1,3.295-5.735A7.6,7.6,0,0,0,72.694,31.6c-2.319-.244-4.637,1.342-5.735,1.342-1.22,0-3.051-1.342-5-1.342a7.25,7.25,0,0,0-6.223,3.783c-2.685,4.637-.732,11.471,1.83,15.253,1.342,1.83,2.807,3.9,4.759,3.783s2.685-1.22,5-1.22,2.929,1.22,5,1.22,3.417-1.83,4.637-3.661a13.987,13.987,0,0,0,2.074-4.271A6.747,6.747,0,0,1,74.891,40.391Z" transform="translate(-41.943 -16.229)" fill="#fff"/>
    <path id="Path_43758" data-name="Path 43758" d="M68.9,30.481A7.567,7.567,0,0,0,70.487,25.6a6.535,6.535,0,0,0-4.393,2.319,6.171,6.171,0,0,0-1.586,4.637A5.8,5.8,0,0,0,68.9,30.481Z" transform="translate(-39.736 -17.546)" fill="#fff"/>
    <path id="Path_43759" data-name="Path 43759" d="M96.379,52.941H93.694L92.23,48.3H87.1l-1.342,4.637H83.2L88.325,37.2H91.5Zm-4.637-6.589L90.4,42.2c-.122-.366-.366-1.464-.854-2.929h0c-.122.61-.366,1.708-.732,2.929l-1.342,4.149Z" transform="translate(-35.609 -14.991)" fill="#fff"/>
    <path id="Path_43760" data-name="Path 43760" d="M106.683,46.435a6.5,6.5,0,0,1-1.586,4.637,4.694,4.694,0,0,1-3.539,1.464,3.321,3.321,0,0,1-3.173-1.586h0V56.93H95.822v-12.2c0-1.22,0-2.441-.122-3.783h2.2l.122,1.83h0A4.2,4.2,0,0,1,101.8,40.7a3.936,3.936,0,0,1,3.295,1.586A5.17,5.17,0,0,1,106.683,46.435Zm-2.563,0a4.384,4.384,0,0,0-.732-2.685,2.464,2.464,0,0,0-2.2-1.1,2.916,2.916,0,0,0-1.708.61,2.713,2.713,0,0,0-.976,1.586,2.147,2.147,0,0,0-.122.732v1.952a3.079,3.079,0,0,0,.732,2.074,2.428,2.428,0,0,0,1.952.854,2.464,2.464,0,0,0,2.2-1.1A4.408,4.408,0,0,0,104.12,46.435Z" transform="translate(-32.855 -14.22)" fill="#fff"/>
    <path id="Path_43761" data-name="Path 43761" d="M117.383,46.435a6.5,6.5,0,0,1-1.586,4.637,4.694,4.694,0,0,1-3.539,1.464,3.321,3.321,0,0,1-3.173-1.586h0V56.93h-2.563v-12.2c0-1.22,0-2.441-.122-3.783h2.2l.122,1.83h0A4.2,4.2,0,0,1,112.5,40.7a3.936,3.936,0,0,1,3.295,1.586A5.17,5.17,0,0,1,117.383,46.435Zm-2.563,0a4.384,4.384,0,0,0-.732-2.685,2.464,2.464,0,0,0-2.2-1.1,2.916,2.916,0,0,0-1.708.61,2.713,2.713,0,0,0-.976,1.586,2.147,2.147,0,0,0-.122.732v1.952a3.079,3.079,0,0,0,.732,2.074,2.428,2.428,0,0,0,1.952.854,2.464,2.464,0,0,0,2.2-1.1A4.408,4.408,0,0,0,114.82,46.435Z" transform="translate(-30.498 -14.22)" fill="#fff"/>
    <path id="Path_43762" data-name="Path 43762" d="M129.14,48.571a4.506,4.506,0,0,1-1.342,3.295,5.809,5.809,0,0,1-4.271,1.342,7.544,7.544,0,0,1-4.027-.976l.61-2.074a7.455,7.455,0,0,0,3.661.976,3.624,3.624,0,0,0,2.2-.61,2.216,2.216,0,0,0,.732-1.708,2.32,2.32,0,0,0-.61-1.586,6.115,6.115,0,0,0-2.2-1.22c-2.807-.976-4.149-2.563-4.149-4.515a3.935,3.935,0,0,1,1.464-3.173,5.558,5.558,0,0,1,3.9-1.22,7.609,7.609,0,0,1,3.539.732l-.61,2.074a5.944,5.944,0,0,0-3.051-.732,3.49,3.49,0,0,0-2.074.61,2.021,2.021,0,0,0-.61,1.464,2.148,2.148,0,0,0,.732,1.586,9.468,9.468,0,0,0,2.319,1.22,8.232,8.232,0,0,1,3.051,1.952A4.911,4.911,0,0,1,129.14,48.571Z" transform="translate(-27.613 -15.013)" fill="#fff"/>
    <path id="Path_43763" data-name="Path 43763" d="M135.456,43.259h-2.807V48.75c0,1.342.488,2.074,1.464,2.074a2.709,2.709,0,0,0,1.1-.122l.122,1.952a4.471,4.471,0,0,1-1.952.244,2.87,2.87,0,0,1-2.319-.854,4.152,4.152,0,0,1-.854-3.051V43.259H128.5V41.307h1.708V39.232l2.441-.732v2.807h2.807Z" transform="translate(-25.63 -14.705)" fill="#fff"/>
    <path id="Path_43764" data-name="Path 43764" d="M146.5,46.457a6.259,6.259,0,0,1-1.464,4.271,5.609,5.609,0,0,1-4.149,1.708,5.153,5.153,0,0,1-4.027-1.708,5.944,5.944,0,0,1-1.464-4.149,5.8,5.8,0,0,1,1.586-4.271,5.419,5.419,0,0,1,4.149-1.708,5.153,5.153,0,0,1,4.027,1.708A6.5,6.5,0,0,1,146.5,46.457Zm-2.685.122a4.64,4.64,0,0,0-.732-2.685,2.674,2.674,0,0,0-4.637,0,4.92,4.92,0,0,0-.732,2.685,4.641,4.641,0,0,0,.732,2.685,2.616,2.616,0,0,0,2.319,1.342,2.764,2.764,0,0,0,2.319-1.342A4.919,4.919,0,0,0,143.82,46.579Z" transform="translate(-24.11 -14.242)" fill="#fff"/>
    <path id="Path_43765" data-name="Path 43765" d="M152.323,43.063c-.244,0-.488-.122-.854-.122a2.606,2.606,0,0,0-2.074.976,4.214,4.214,0,0,0-.61,2.2v5.979h-2.563v-7.81a32,32,0,0,0-.122-3.539h2.2l.122,2.2h.122a4.827,4.827,0,0,1,1.22-1.83,3.631,3.631,0,0,1,1.83-.61h.61v2.563Z" transform="translate(-21.753 -14.264)" fill="#fff"/>
    <path id="Path_43766" data-name="Path 43766" d="M162.228,45.969a2.708,2.708,0,0,1-.122,1.1h-7.566a3.152,3.152,0,0,0,1.1,2.563,3.93,3.93,0,0,0,2.441.854A8.013,8.013,0,0,0,161.13,50L161.5,51.7a9.1,9.1,0,0,1-3.783.732,5.339,5.339,0,0,1-4.149-1.586A5.741,5.741,0,0,1,152.1,46.7a6.863,6.863,0,0,1,1.342-4.271,4.875,4.875,0,0,1,4.027-1.83,4.061,4.061,0,0,1,3.661,1.83A5.123,5.123,0,0,1,162.228,45.969Zm-2.319-.61a3.581,3.581,0,0,0-.488-1.952,2.2,2.2,0,0,0-1.952-1.1,2.371,2.371,0,0,0-1.952.976,4.659,4.659,0,0,0-.732,1.952h5.125Z" transform="translate(-20.432 -14.242)" fill="#fff"/>
    <path id="Path_43767" data-name="Path 43767" d="M90.745,29.961a3.969,3.969,0,0,1-1.22,3.173,5.05,5.05,0,0,1-3.295.976,8.081,8.081,0,0,1-1.83-.122V26.422a11.863,11.863,0,0,1,2.2-.122,4.548,4.548,0,0,1,3.051.854A3.952,3.952,0,0,1,90.745,29.961Zm-1.342,0A2.549,2.549,0,0,0,86.6,27.154a2.379,2.379,0,0,0-.976.122v5.735h.854a2.983,2.983,0,0,0,2.2-.732A3.3,3.3,0,0,0,89.4,29.961Z" transform="translate(-35.345 -17.392)" fill="#fff"/>
    <path id="Path_43768" data-name="Path 43768" d="M96.191,30.829a2.87,2.87,0,0,1-.732,2.074,2.514,2.514,0,0,1-2.074.854,2.276,2.276,0,0,1-1.952-.854,2.87,2.87,0,0,1-.732-2.074,2.87,2.87,0,0,1,.732-2.074,2.514,2.514,0,0,1,2.075-.854,2.276,2.276,0,0,1,1.952.854A2.87,2.87,0,0,1,96.191,30.829Zm-1.22,0a2.46,2.46,0,0,0-.366-1.342,1.067,1.067,0,0,0-1.1-.61,1.282,1.282,0,0,0-1.1.61,2.644,2.644,0,0,0,0,2.685,1.067,1.067,0,0,0,1.1.61,1.173,1.173,0,0,0,1.1-.732A1.822,1.822,0,0,0,94.971,30.829Z" transform="translate(-33.957 -17.04)" fill="#fff"/>
    <path id="Path_43769" data-name="Path 43769" d="M104.376,28l-1.708,5.613h-1.1l-.732-2.441a10.167,10.167,0,0,1-.488-1.83h0a10.165,10.165,0,0,1-.488,1.83l-.732,2.441h-1.1L96.2,28h1.22l.61,2.685.366,1.83h0c.122-.488.244-1.1.488-1.83L99.617,28h.976l.732,2.563a10.166,10.166,0,0,1,.488,1.83h0l.366-1.83L102.912,28Z" transform="translate(-32.745 -17.018)" fill="#fff"/>
    <path id="Path_43770" data-name="Path 43770" d="M108.959,33.657h-1.22V30.485q0-1.464-1.1-1.464a1.108,1.108,0,0,0-.854.366,1.386,1.386,0,0,0-.366.976v3.295H104.2V28.044h1.1V28.9h0a3.235,3.235,0,0,1,.61-.732,1.968,1.968,0,0,1,1.1-.366,1.835,1.835,0,0,1,1.342.488,2.1,2.1,0,0,1,.61,1.83Z" transform="translate(-30.983 -17.062)" fill="#fff"/>
    <path id="Path_43771" data-name="Path 43771" d="M111.12,34.076H109.9V25.9h1.22Z" transform="translate(-29.727 -17.48)" fill="#fff"/>
    <path id="Path_43772" data-name="Path 43772" d="M117.891,30.829a2.87,2.87,0,0,1-.732,2.074,2.514,2.514,0,0,1-2.074.854,2.276,2.276,0,0,1-1.952-.854,2.87,2.87,0,0,1-.732-2.074,2.87,2.87,0,0,1,.732-2.074,2.944,2.944,0,0,1,2.074-.854,2.276,2.276,0,0,1,1.952.854A2.87,2.87,0,0,1,117.891,30.829Zm-1.22,0a2.46,2.46,0,0,0-.366-1.342,1.067,1.067,0,0,0-1.1-.61,1.282,1.282,0,0,0-1.1.61,2.644,2.644,0,0,0,0,2.685,1.067,1.067,0,0,0,1.1.61,1.173,1.173,0,0,0,1.1-.732A1.822,1.822,0,0,0,116.671,30.829Z" transform="translate(-29.177 -17.04)" fill="#fff"/>
    <path id="Path_43773" data-name="Path 43773" d="M122.615,33.635h-1.1l-.122-.61h0a1.968,1.968,0,0,1-1.586.732,1.415,1.415,0,0,1-1.22-.488,2.193,2.193,0,0,1-.488-1.1,1.655,1.655,0,0,1,.854-1.586,4.561,4.561,0,0,1,2.441-.488v-.122a.971.971,0,0,0-1.1-1.1,2.9,2.9,0,0,0-1.464.366l-.244-.854a3.1,3.1,0,0,1,1.952-.488c1.464,0,2.2.732,2.2,2.319v2.074A5.987,5.987,0,0,0,122.615,33.635Zm-1.22-1.952v-.854c-1.342,0-2.074.366-2.074,1.1a.834.834,0,0,0,.854.854,1.734,1.734,0,0,0,.732-.244,1.218,1.218,0,0,0,.488-.61Z" transform="translate(-27.921 -17.04)" fill="#fff"/>
    <path id="Path_43774" data-name="Path 43774" d="M128.547,34.054h-1.1V33.2h0a1.8,1.8,0,0,1-1.83.976,2.216,2.216,0,0,1-1.708-.732,2.82,2.82,0,0,1-.61-2.074,3.407,3.407,0,0,1,.732-2.2,2.409,2.409,0,0,1,1.708-.732,1.813,1.813,0,0,1,1.586.732h0V26h1.22v8.054Zm-1.22-2.318V30.393a2.552,2.552,0,0,0-.488-.732,1.03,1.03,0,0,0-.854-.244,1.282,1.282,0,0,0-1.1.61,2.6,2.6,0,0,0-.366,1.464,2.192,2.192,0,0,0,.366,1.342,1.281,1.281,0,0,0,1.1.61,1.11,1.11,0,0,0,.976-.488A2.728,2.728,0,0,0,127.327,31.735Z" transform="translate(-26.776 -17.458)" fill="#fff"/>
    <path id="Path_43775" data-name="Path 43775" d="M137.291,30.829a2.87,2.87,0,0,1-.732,2.074,2.514,2.514,0,0,1-2.074.854,2.276,2.276,0,0,1-1.952-.854,2.87,2.87,0,0,1-.732-2.074,2.87,2.87,0,0,1,.732-2.074,2.514,2.514,0,0,1,2.074-.854,2.276,2.276,0,0,1,1.952.854A2.87,2.87,0,0,1,137.291,30.829Zm-1.342,0a2.46,2.46,0,0,0-.366-1.342,1.067,1.067,0,0,0-1.1-.61,1.282,1.282,0,0,0-1.1.61,2.644,2.644,0,0,0,0,2.685,1.067,1.067,0,0,0,1.1.61,1.173,1.173,0,0,0,1.1-.732A1.822,1.822,0,0,0,135.949,30.829Z" transform="translate(-24.903 -17.04)" fill="#fff"/>
    <path id="Path_43776" data-name="Path 43776" d="M142.659,33.657h-1.22V30.485q0-1.464-1.1-1.464a1.108,1.108,0,0,0-.854.366,1.386,1.386,0,0,0-.366.976v3.295H137.9V28.044H139V28.9h0a3.236,3.236,0,0,1,.61-.732,1.968,1.968,0,0,1,1.1-.366,1.835,1.835,0,0,1,1.342.488,2.1,2.1,0,0,1,.61,1.83Z" transform="translate(-23.56 -17.062)" fill="#fff"/>
    <path id="Path_43777" data-name="Path 43777" d="M149.195,29.219h-1.342V31.9c0,.732.244.976.732.976h.61v.976a2.379,2.379,0,0,1-.976.122,1.19,1.19,0,0,1-1.1-.488,2.346,2.346,0,0,1-.366-1.464V29.218H145.9v-.976h.854v-.976l1.22-.366v1.342h1.342v.976Z" transform="translate(-21.797 -17.26)" fill="#fff"/>
    <path id="Path_43778" data-name="Path 43778" d="M154.859,34.076h-1.22V30.9q0-1.464-1.1-1.464a1.175,1.175,0,0,0-1.22.854v3.783H150.1V25.9h1.22v3.417h0a1.948,1.948,0,0,1,1.708-.976,1.415,1.415,0,0,1,1.22.488,2.746,2.746,0,0,1,.61,1.83Z" transform="translate(-20.872 -17.48)" fill="#fff"/>
    <path id="Path_43779" data-name="Path 43779" d="M160.381,30.563v.61H156.72a1.627,1.627,0,0,0,.488,1.22,2.062,2.062,0,0,0,1.22.366,4.551,4.551,0,0,0,1.464-.244l.244.854a4.075,4.075,0,0,1-1.83.366,2.939,2.939,0,0,1-2.074-4.881A2.276,2.276,0,0,1,158.185,28a1.926,1.926,0,0,1,1.83.854A3.232,3.232,0,0,1,160.381,30.563Zm-1.1-.366a2.3,2.3,0,0,0-.244-.976.99.99,0,0,0-.976-.488,1.11,1.11,0,0,0-.976.488,1.386,1.386,0,0,0-.366.976Z" transform="translate(-19.683 -17.018)" fill="#fff"/>
  </g>
</svg>
